<svg width="2634" height="2771" viewBox="0 0 2634 2771" fill="none" xmlns="http://www.w3.org/2000/svg">
<g clip-path="url(#clip0_1_2)">
<rect x="1236.25" y="1469.09" width="161.034" height="814.44" rx="23" fill="#1C7D43"/>
<rect x="1236.25" y="1942.6" width="161.034" height="151.524" fill="black" fill-opacity="0.41"/>
<path d="M1304.19 696.927C1309.06 694.196 1315 694.196 1319.86 696.927L1902.72 1024.14C1907.76 1026.97 1910.88 1032.3 1910.88 1038.09V1691.74C1910.88 1697.53 1907.76 1702.86 1902.72 1705.7L1319.86 2032.91C1315 2035.64 1309.06 2035.64 1304.19 2032.91L721.338 1705.7C716.294 1702.86 713.171 1697.53 713.171 1691.74V1038.09C713.171 1032.3 716.294 1026.97 721.338 1024.14L1304.19 696.927Z" fill="#1E954D"/>
<g filter="url(#filter0_d_1_2)">
<path d="M1324.26 232.317L2309.31 801.034C2311.01 802.016 2312.06 803.832 2312.06 805.797V1943.23C2312.06 1945.2 2311.01 1947.01 2309.31 1947.99L1324.26 2516.71C1322.56 2517.69 1320.47 2517.69 1318.76 2516.71L333.717 1947.99C332.016 1947.01 330.967 1945.2 330.967 1943.23V805.797C330.967 803.832 332.016 802.016 333.717 801.034L1318.76 232.317C1320.47 231.335 1322.56 231.335 1324.26 232.317Z" stroke="#22AA58" stroke-width="77" shape-rendering="crispEdges"/>
</g>
</g>
<defs>
<filter id="filter0_d_1_2" x="42.4674" y="-56.9198" width="2558.09" height="2862.87" filterUnits="userSpaceOnUse" color-interpolation-filters="sRGB">
<feFlood flood-opacity="0" result="BackgroundImageFix"/>
<feColorMatrix in="SourceAlpha" type="matrix" values="0 0 0 0 0 0 0 0 0 0 0 0 0 0 0 0 0 0 127 0" result="hardAlpha"/>
<feOffset/>
<feGaussianBlur stdDeviation="125"/>
<feComposite in2="hardAlpha" operator="out"/>
<feColorMatrix type="matrix" values="0 0 0 0 0.310937 0 0 0 0 0.872396 0 0 0 0 0.533869 0 0 0 1 0"/>
<feBlend mode="normal" in2="BackgroundImageFix" result="effect1_dropShadow_1_2"/>
<feBlend mode="normal" in="SourceGraphic" in2="effect1_dropShadow_1_2" result="shape"/>
</filter>
<clipPath id="clip0_1_2">
<rect width="2634" height="2771" fill="white"/>
</clipPath>
</defs>
</svg>
