<svg width="2207" height="512" viewBox="0 0 2207 512" fill="none" xmlns="http://www.w3.org/2000/svg">
<g clip-path="url(#clip0_5_52)">
<rect x="256.343" y="274.304" width="29.5753" height="148.964" rx="14.7877" fill="#1C7D43"/>
<rect x="256.343" y="360.911" width="29.5753" height="27.7143" fill="black" fill-opacity="0.41"/>
<path d="M262.452 136.633C267.304 133.921 273.216 133.921 278.068 136.633L372.053 189.179C377.112 192.007 380.245 197.349 380.245 203.144V307.356C380.245 313.151 377.112 318.493 372.053 321.321L278.068 373.867C273.216 376.579 267.304 376.579 262.452 373.867L168.467 321.321C163.409 318.493 160.275 313.151 160.275 307.356V203.144C160.275 197.349 163.409 192.007 168.467 189.179L262.452 136.633Z" fill="#1E954D"/>
<g filter="url(#filter0_d_5_52)">
<path d="M255.668 62.0204C265.724 56.2148 278.112 56.2148 288.168 62.0204L432.579 145.396C442.635 151.202 448.829 161.931 448.829 173.542V340.294C448.829 351.905 442.635 362.634 432.579 368.44L288.168 451.816C278.112 457.621 265.724 457.621 255.668 451.816L111.257 368.44C101.201 362.634 95.0067 351.905 95.0067 340.294V173.542C95.0067 161.931 101.201 151.202 111.257 145.396L255.668 62.0204Z" stroke="#22AA58" stroke-width="23" shape-rendering="crispEdges"/>
</g>
<path d="M539.551 203.645H650.906V314.887H562.66V315H539.664V314.887H539.551V203.645ZM627.91 291.891V270.82H562.66V291.891H627.91ZM627.91 226.641H562.66V247.711H627.91V226.641ZM750.48 203.645H773.59V315H662.348V203.645H685.457V291.891H750.48V203.645ZM785.145 203.645H896.5V226.641H873.504H808.254V247.711H840.879H896.5V315H785.145V291.891H808.254H873.504V270.594H840.879H785.145V203.645ZM996.301 203.645H1019.41V315H996.301V270.82H931.277V315H908.168V203.645H931.277V247.824H996.301V203.645ZM1120.68 203.645V291.891H1208.82V315H1097.57V203.645H1120.68ZM1331.73 247.711H1345.32V270.82H1331.73V315H1308.73V270.82H1270.21V247.711H1308.73V226.754H1243.48V315H1220.37V203.645H1331.73V247.711ZM1444.89 203.645H1468V315H1356.76V203.645H1379.87V291.891H1444.89V203.645ZM1567.69 203.645H1590.8V315H1567.69L1502.67 239.215V315H1479.56V203.645H1502.67V203.758L1567.69 278.297V203.645ZM1713.71 226.754H1625.46V291.891H1713.71V314.887H1602.36V203.758H1713.71V226.754ZM1813.29 203.645H1836.39V315H1813.29V270.82H1748.26V315H1725.15V203.645H1748.26V247.824H1813.29V203.645ZM1940.73 270.82H1882.16V247.711H1940.73V270.82ZM1959.19 203.645V226.641H1871.06V291.891H1959.19V315H1847.95V203.645H1959.19ZM2065 270.82L2084.71 315H2057.29L2037.92 270.82H1993.74L1993.63 315H1970.63V270.594H1970.52V203.645H2081.88V215.652L2081.99 270.82H2065ZM2058.88 247.711V226.641H1993.63V247.711H2058.88Z" fill="white"/>
</g>
<defs>
<filter id="filter0_d_5_52" x="-16.4934" y="-53.8338" width="576.823" height="621.504" filterUnits="userSpaceOnUse" color-interpolation-filters="sRGB">
<feFlood flood-opacity="0" result="BackgroundImageFix"/>
<feColorMatrix in="SourceAlpha" type="matrix" values="0 0 0 0 0 0 0 0 0 0 0 0 0 0 0 0 0 0 127 0" result="hardAlpha"/>
<feOffset/>
<feGaussianBlur stdDeviation="50"/>
<feComposite in2="hardAlpha" operator="out"/>
<feColorMatrix type="matrix" values="0 0 0 0 0.310937 0 0 0 0 0.872396 0 0 0 0 0.533869 0 0 0 1 0"/>
<feBlend mode="normal" in2="BackgroundImageFix" result="effect1_dropShadow_5_52"/>
<feBlend mode="normal" in="SourceGraphic" in2="effect1_dropShadow_5_52" result="shape"/>
</filter>
<clipPath id="clip0_5_52">
<rect width="2207" height="512" fill="white"/>
</clipPath>
</defs>
</svg>
